<?xml version="1.0" encoding="utf-8"?>
<!-- Generator: Adobe Illustrator 27.1.1, SVG Export Plug-In . SVG Version: 6.00 Build 0)  -->
<svg version="1.1" id="Layer_1" xmlns="http://www.w3.org/2000/svg" xmlns:xlink="http://www.w3.org/1999/xlink" x="0px" y="0px"
	 viewBox="0 0 374.5 160.99" style="enable-background:new 0 0 374.5 160.99;" xml:space="preserve">
<style type="text/css">
	.st0{fill:none;stroke:#EAE0D5;stroke-width:16;stroke-linecap:square;stroke-linejoin:round;stroke-miterlimit:11.3386;}
	.st1{fill:none;}
	.st2{fill:none;stroke:#EAE0D5;stroke-width:16;stroke-linejoin:round;}
	.st3{fill:#EAE0D5;stroke:#EAE0D5;stroke-miterlimit:10;}
	.st4{fill:none;stroke:#FFFFFF;stroke-width:2;stroke-miterlimit:11.3386;}
	.st5{fill:none;stroke:#EAE0D5;stroke-width:16;stroke-linejoin:round;}
	.st6{fill:#EAE0D5;stroke:#EAE0D5;stroke-miterlimit:10;}
	.st7{fill:#EAE0D5;}
	.st8{font-family:'GreycliffCF-ExtraBold';}
	.st9{font-size:65px;}
	.st10{fill:none;stroke:#FFFFFF;stroke-width:2;stroke-linejoin:round;stroke-miterlimit:11.3386;}
	.st11{fill:#EAE0D5;}
	.st12{font-size:35.065px;}
</style>
<path class="st0" d="M175.04,39.84c-0.02-0.06-0.04,0.24-0.06,0.18c-5.34-17.02-21.17-29.53-39.86-29.53
	c-10.68,0-20.44,3.76-27.83,10.4c-2.17,1.74-9.53,7.92-13.82,15.34c-4.71-7.78-13.82-14.9-14.4-15.34
	c-0.01-0.01-0.02-0.01-0.02-0.02l-0.01-0.01c-7.34-6.46-16.97-10.37-27.5-10.37c-18.69,0-34.52,12.33-39.86,29.35
	c-0.02,0.06-0.04,0.11-0.06,0.18C-5.71,91.25,93.36,145.89,93.36,145.89S192.37,91.07,175.04,39.84z"/>

<g class="uorf4u_logo_svg">
<g>
	<path class="st1" d="M407.51,149.14"/>
</g>
<path class="st2" d="M93.34,145.89c0,0,24.81-13.74,47.42-33.89"/>
<g>
	<polygon class="st3" points="148.92,127.18 157.71,94.84 125.31,103.4 	"/>
</g>
<polyline class="st4" points="124.02,102.64 159.13,93.45 149.55,128.44 "/>
<path class="st5" d="M21.57,85.41c23.16,33.67,71.77,60.48,71.77,60.48"/>
<g>
	<polygon class="st6" points="80.95,158.19 114.45,157.54 97.13,128.85 	"/>
</g>
<g>
	<text transform="matrix(1 0 0 1 167.3713 156.7229)" class="st7 st8 st9">uORF</text>
</g>
<line class="st10" x1="14.04" y1="89.39" x2="27.74" y2="79.91"/>
<text transform="matrix(1 0 0 1 331.506 124.0302)" class="st11 st8 st9">U</text>
<line class="st4" x1="100.49" y1="131.49" x2="109.83" y2="146.96"/>
<text transform="matrix(1 0 0 1 313.1732 104.2921)" class="st11 st8 st12">4</text>
</g>
</svg>
