<?xml version="1.0" encoding="UTF-8"?>
<svg id="Layer_1" data-name="Layer 1" xmlns="http://www.w3.org/2000/svg" viewBox="0 0 187.41 159.79">
  <defs>
    <style>
      .cls-1, .cls-2, .cls-3 {
        fill: none;
      }

      .cls-1, .cls-3 {
        stroke: #fff;
        stroke-linejoin: round;
        stroke-width: 16px;
      }

      .cls-4 {
        fill: #fff;
      }

      .cls-2 {
        stroke: #757576;
        stroke-miterlimit: 11.34;
        stroke-width: 2px;
      }

      .cls-3 {
        stroke-linecap: square;
      }
    </style>
  </defs>
  <g>
    <path class="cls-3" d="M93.16,35.15m81.7,3.42c-.02-.06-.04,.24-.06,.18-5.34-17.02-21.17-29.53-39.86-29.53-10.68,0-20.44,3.76-27.83,10.4-2.17,1.74-9.53,7.92-13.82,15.34-4.71-7.78-13.82-14.9-14.4-15.34,0,0-.02-.01-.02-.02h0c-7.35-6.47-16.97-10.39-27.51-10.39-18.69,0-34.52,12.33-39.86,29.35-.02,.06-.04,.11-.06,.18-17.33,51.23,81.73,105.87,81.73,105.87,0,0,99.01-54.82,81.68-106.05Z"/>
    <g>
      <path class="cls-4" d="M93.16,144.62s39.64-21.95,64.37-51.04"/>
      <g>
        <path class="cls-1" d="M93.16,144.62s24.81-13.74,47.42-33.89"/>
        <polygon class="cls-4" points="148.74 125.91 157.52 93.58 125.13 102.13 148.74 125.91"/>
      </g>
    </g>
    <g>
      <path class="cls-1" d="M21.38,84.14c23.16,33.67,71.77,60.48,71.77,60.48"/>
      <polygon class="cls-4" points="80.76 156.92 114.26 156.27 96.95 127.58 80.76 156.92"/>
    </g>
  </g>
  <g>
    <polyline class="cls-2" points="123.83 101.37 158.94 92.18 149.36 127.17"/>
    <line class="cls-2" x1="13.86" y1="88.12" x2="27.56" y2="78.64"/>
    <line class="cls-2" x1="100.18" y1="131" x2="108.48" y2="144.75"/>
  </g>
</svg>