<?xml version="1.0" encoding="utf-8"?>
<!-- Generator: Adobe Illustrator 26.5.0, SVG Export Plug-In . SVG Version: 6.00 Build 0)  -->
<svg version="1.1" id="Layer_1" xmlns="http://www.w3.org/2000/svg" xmlns:xlink="http://www.w3.org/1999/xlink" x="0px" y="0px"
	 viewBox="0 0 362.2 186.6" style="enable-background:new 0 0 362.2 186.6;" xml:space="preserve">
<style type="text/css">
	.st0{fill:none;stroke:#FFFFFF;stroke-width:12;stroke-linecap:square;stroke-linejoin:round;}
	.st1{fill:#FFFFFF;}
	.st2{fill:none;stroke:#FFFFFF;stroke-width:6;stroke-linecap:square;}
</style>
<path class="st0" d="M237.4,38.2c0-0.1,0,0.2-0.1,0.2c-5.3-17-21.2-29.5-39.9-29.5c-10.7,0-20.4,3.8-27.8,10.4
	c-2.2,1.7-9.5,7.9-13.8,15.3c-4.7-7.8-13.8-14.9-14.4-15.3l0,0l0,0c-7.4-6.5-17-10.4-27.5-10.4C95.2,8.8,79.4,21.1,74,38.2
	c0,0.1,0,0.1-0.1,0.2c-17.3,51.2,81.7,105.9,81.7,105.9S254.7,89.4,237.4,38.2L237.4,38.2z"/>
<g>
	<path class="st1" d="M158.6,138.9c13.6,8.9,28.2,16.9,43.4,22.9c5.1,2,10.3,3.8,15.7,5.1c0,0-0.2,1.5-0.2,1.5
		c-11.2-1-22.2-3.7-32.9-7c-10.8-3.3-21.3-7.4-31.7-12L158.6,138.9L158.6,138.9z"/>
</g>
<polygon class="st2" points="15.3,180.6 66.6,180.6 89.3,167.8 66.6,155 15.3,155 "/>
<polygon class="st2" points="220.2,180.5 330.5,180.5 353.2,167.7 330.5,154.9 220.2,154.9 "/>
<g>
	<path class="st1" d="M158.6,149.3c-20.6,9.2-42.1,16.9-64.6,19.2c0,0-0.2-1.5-0.2-1.5c5.4-1.3,10.6-3.1,15.7-5.1
		c15.2-6.1,29.7-14.1,43.4-23.1C152.8,138.8,158.6,149.3,158.6,149.3L158.6,149.3z"/>
</g>
</svg>
